<svg width="146" height="112" viewBox="0 0 146 112" fill="none" xmlns="http://www.w3.org/2000/svg">
<line x1="8.33914" y1="43.6326" x2="73.3391" y2="103.633" stroke="#CCCCCC"/>
<line x1="8.24225" y1="43.5626" x2="73.2423" y2="79.5626" stroke="#E5E5E5"/>
<line x1="8.39544" y1="19.694" x2="73.3954" y2="103.694" stroke="#C4C4C4"/>
<line x1="8.09077" y1="43.5083" x2="73.0908" y2="55.5083" stroke="#B6B6B6"/>
<line x1="7.60456" y1="91.694" x2="72.6046" y2="7.69401" stroke="#AAAAAA"/>
<line x1="8.33914" y1="19.6326" x2="73.3391" y2="79.6326" stroke="#D5D5D5"/>
<line x1="8.24225" y1="19.5626" x2="73.2422" y2="55.5626" stroke="#B2B2B2"/>
<line x1="7.75775" y1="67.5626" x2="72.7578" y2="31.5626" stroke="black"/>
<line x1="7.90923" y1="19.5083" x2="72.9092" y2="7.50831" stroke="#C4C4C4"/>
<line x1="8.09077" y1="19.5083" x2="73.0908" y2="31.5083" stroke="#797979"/>
<line x1="7.75775" y1="43.5626" x2="72.7578" y2="7.5626" stroke="#C7C7C7"/>
<line x1="7.90923" y1="43.5083" x2="72.9092" y2="31.5083" stroke="#7D7D7D"/>
<line x1="7.66086" y1="67.6326" x2="72.6609" y2="7.6326" stroke="#999999"/>
<line x1="7.90923" y1="67.5083" x2="72.9092" y2="55.5083" stroke="#878787"/>
<line x1="8.09077" y1="67.5083" x2="73.0908" y2="79.5083" stroke="#BEBDBD"/>
<line x1="8.24225" y1="67.5626" x2="73.2422" y2="103.563" stroke="#B4B3B3"/>
<line x1="7.66086" y1="91.6326" x2="72.6609" y2="31.6326" stroke="#585858"/>
<line x1="7.75775" y1="91.5626" x2="72.7578" y2="55.5626" stroke="#898989"/>
<line x1="7.90923" y1="91.5083" x2="72.9092" y2="79.5083" stroke="#A4A4A4"/>
<line x1="8.09077" y1="91.5083" x2="73.0908" y2="103.508" stroke="#9E9E9E"/>
<line y1="-0.5" x2="106.212" y2="-0.5" transform="matrix(-0.611983 -0.790871 -0.790871 0.611983 138 92)" stroke="#AAAAAA"/>
<line y1="-0.5" x2="88.459" y2="-0.5" transform="matrix(-0.734803 -0.67828 -0.67828 0.734803 138 68)" stroke="#999999"/>
<line y1="-0.5" x2="74.3034" y2="-0.5" transform="matrix(-0.874791 -0.4845 -0.4845 0.874791 138 44)" stroke="#C7C7C7"/>
<line y1="-0.5" x2="88.459" y2="-0.5" transform="matrix(-0.734803 0.67828 0.67828 0.734803 138 44)" stroke="#CCCCCC"/>
<line y1="-0.5" x2="74.3034" y2="-0.5" transform="matrix(-0.874791 0.4845 0.4845 0.874791 138 44)" stroke="#E5E5E5"/>
<line y1="-0.5" x2="106.212" y2="-0.5" transform="matrix(-0.611983 0.790871 0.790871 0.611983 138 20)" stroke="#C4C4C4"/>
<line y1="-0.5" x2="66.0984" y2="-0.5" transform="matrix(-0.983382 0.181547 0.181547 0.983382 138 44)" stroke="#B6B6B6"/>
<line y1="-0.5" x2="88.459" y2="-0.5" transform="matrix(-0.734803 0.67828 0.67828 0.734803 138 20)" stroke="#D5D5D5"/>
<line y1="-0.5" x2="74.3034" y2="-0.5" transform="matrix(-0.874791 0.4845 0.4845 0.874791 138 20)" stroke="#B2B2B2"/>
<line y1="-0.5" x2="74.3034" y2="-0.5" transform="matrix(-0.874791 -0.4845 -0.4845 0.874791 138 68)" stroke="black"/>
<line y1="-0.5" x2="66.0984" y2="-0.5" transform="matrix(-0.983382 -0.181547 -0.181547 0.983382 138 20)" stroke="#C4C4C4"/>
<line y1="-0.5" x2="66.0984" y2="-0.5" transform="matrix(-0.983382 0.181547 0.181547 0.983382 138 20)" stroke="#797979"/>
<line y1="-0.5" x2="66.0984" y2="-0.5" transform="matrix(-0.983382 -0.181547 -0.181547 0.983382 138 44)" stroke="#7D7D7D"/>
<line y1="-0.5" x2="66.0984" y2="-0.5" transform="matrix(-0.983382 -0.181547 -0.181547 0.983382 138 68)" stroke="#878787"/>
<line y1="-0.5" x2="66.0984" y2="-0.5" transform="matrix(-0.983382 0.181547 0.181547 0.983382 138 68)" stroke="#BEBDBD"/>
<line y1="-0.5" x2="74.3034" y2="-0.5" transform="matrix(-0.874791 0.4845 0.4845 0.874791 138 68)" stroke="#B4B3B3"/>
<line y1="-0.5" x2="88.459" y2="-0.5" transform="matrix(-0.734803 -0.67828 -0.67828 0.734803 138 92)" stroke="#585858"/>
<line y1="-0.5" x2="74.3034" y2="-0.5" transform="matrix(-0.874791 -0.4845 -0.4845 0.874791 138 92)" stroke="#898989"/>
<line y1="-0.5" x2="66.0984" y2="-0.5" transform="matrix(-0.983382 -0.181547 -0.181547 0.983382 138 92)" stroke="#A4A4A4"/>
<line y1="-0.5" x2="66.0984" y2="-0.5" transform="matrix(-0.983382 0.181547 0.181547 0.983382 138 92)" stroke="#9E9E9E"/>
<circle cx="8" cy="20" r="8" fill="#C4C4C4"/>
<circle cx="8" cy="44" r="8" fill="#E5E5E5"/>
<circle cx="8" cy="68" r="8" fill="black"/>
<circle cx="8" cy="92" r="8" fill="#6D6B6D"/>
<circle cx="73" cy="8" r="8" fill="#C4C4C4"/>
<circle cx="73" cy="56" r="8" fill="#B2B2B2"/>
<circle cx="73" cy="80" r="8" fill="#E5E5E5"/>
<circle cx="73" cy="104" r="8" fill="#C4C4C4"/>
<circle cx="73" cy="32" r="8" fill="#333333"/>
<circle cx="138" cy="20" r="8" fill="#E5E5E5"/>
<circle cx="138" cy="44" r="8" fill="#6C6C6C"/>
<circle cx="138" cy="68" r="8" fill="#C4C4C4"/>
<circle cx="138" cy="92" r="8" fill="black"/>
</svg>
